<svg xmlns="http://www.w3.org/2000/svg" xmlns:xlink="http://www.w3.org/1999/xlink"><symbol id="artwork" viewBox="0 0 28 28"><rect width="24" height="24" x="2" y="2" fill="#fff" opacity=".5"/><path d="M25,3V25H3V3H25m1-1H2V26H26V2Z" opacity=".2"/><rect width="22" height="22" x="3" y="3" fill="#fff"/><rect width="18" height="18" x="5" y="5" fill="#c2deff"/><polygon fill="#39bf68" points="5 23 10.5 14 15 20 18.5 17.5 23 23 5 23"/></symbol><symbol id="artwork-active"><rect width="18" height="18" x="5" y="5" fill="#fff" opacity=".4"/><polygon fill="#fff" points="5 23 10.5 14 15 20 18.5 17.5 23 23 5 23"/><path fill="#fff" d="M25,3V25H3V3H25m1-1H2V26H26V2Z"/></symbol><use viewBox="0 0 28 28" xlink:href="#artwork"/></svg>