<svg xmlns="http://www.w3.org/2000/svg" xmlns:xlink="http://www.w3.org/1999/xlink"><symbol id="audio-recording" viewBox="0 0 28 28"><path fill="#444" d="M15,22.975V27h5v1H9V27h5V22.975A7.5,7.5,0,0,1,7,15.5V10H8v5.5a6.5,6.5,0,0,0,13,0V10h1v5.5A7.5,7.5,0,0,1,15,22.975ZM10,15.5V4.5a4.5,4.5,0,0,1,9,0v11a4.5,4.5,0,0,1-9,0Zm1,0a3.5,3.5,0,0,0,7,0V4.5a3.5,3.5,0,0,0-7,0Z"/><rect width="7" height="18" x="11" y="1" fill="#dadada" rx="3.5"/></symbol><symbol id="audio-recording-active"><path fill="#fff" d="M15,22.975V27h5v1H9V27h5V22.975A7.5,7.5,0,0,1,7,15.5V10H8v5.5a6.5,6.5,0,0,0,13,0V10h1v5.5A7.5,7.5,0,0,1,15,22.975ZM10,15.5V4.5a4.5,4.5,0,0,1,9,0v11a4.5,4.5,0,0,1-9,0Zm1,0a3.5,3.5,0,0,0,7,0V4.5a3.5,3.5,0,0,0-7,0Z"/><rect width="7" height="18" x="11" y="1" fill="#fff" opacity=".2" rx="3.5"/></symbol><use viewBox="0 0 28 28" xlink:href="#audio-recording"/></svg>