<svg xmlns="http://www.w3.org/2000/svg" xmlns:xlink="http://www.w3.org/1999/xlink"><symbol id="blog-post" viewBox="0 0 28 28"><rect width="21" height="28" x="4" fill="#fff" opacity=".5"/><path d="M24,1V27H5V1H24m1-1H4V28H25V0Z" opacity=".2"/><rect width="19" height="26" x="5" y="1" fill="#fff"/><rect width="13" height="6" x="8" y="4" fill="#ebcaba"/><path fill="#cc7a52" d="M21,4v6H8V4H21m1-1H7v8H22V3Z"/><path fill="#444" d="M16,14H7V13h9Zm-2,2H7v1h7Zm2,3H7v1h9Zm-2,3H7v1h7Z"/><g opacity=".4"><path fill="#444" d="M22,14H18V13h4Zm0,2H18v1h4Zm0,3H18v1h4Z"/></g></symbol><symbol id="blog-post-active"><path fill="#fff" d="M24,1V27H5V1H24m1-1H4V28H25V0Z"/><rect width="13" height="6" x="8" y="4" fill="#fff" opacity=".4"/><path fill="#fff" d="M21,4v6H8V4H21m1-1H7v8H22V3Z"/><path fill="#fff" d="M16,14H7V13h9Zm-2,2H7v1h7Zm2,3H7v1h9Zm-2,3H7v1h7Z"/><g opacity=".4"><path fill="#fff" d="M22,14H18V13h4Zm0,2H18v1h4Zm0,3H18v1h4Z"/></g></symbol><use viewBox="0 0 28 28" xlink:href="#blog-post"/></svg>