<svg xmlns="http://www.w3.org/2000/svg" xmlns:xlink="http://www.w3.org/1999/xlink"><symbol id="conference-paper" viewBox="0 0 28 28"><polygon fill="#ebcaba" points="1.628 3.524 3.438 13.476 7.5 13.476 7.5 7.5 20.5 7.5 20.5 13.476 24.563 13.476 26.372 3.524 1.628 3.524"/><path fill="#444" d="M17.5,4a.5.5,0,0,1-.354-.146l-3-3a.5.5,0,0,1,.708-.708l3,3A.5.5,0,0,1,17.5,4Z"/><path fill="#cc7a52" d="M25,14,27,3H1L3,14H7V27H3v1H25V27H21V14ZM3.875,12.951l-1.618-8.9H25.743l-1.618,8.9H21V7H7v5.951ZM20,27H8V8H20Z"/><rect width="12" height="19" x="8" y="8" fill="#f5e4dc"/></symbol><symbol id="conference-paper-active"><polygon fill="#fff" points="1.628 3.524 3.438 13.476 7.5 13.476 7.5 7.5 20.5 7.5 20.5 13.476 24.563 13.476 26.372 3.524 1.628 3.524" opacity=".4"/><path fill="#fff" d="M17.5,4a.5.5,0,0,1-.354-.146l-3-3a.5.5,0,0,1,.708-.708l3,3A.5.5,0,0,1,17.5,4Z"/><path fill="#fff" d="M25,14,27,3H1L3,14H7V27H3v1H25V27H21V14ZM3.875,12.951l-1.618-8.9H25.743l-1.618,8.9H21V7H7v5.951ZM20,27H8V8H20Z"/><rect width="12" height="19" x="8" y="8" fill="#fff" opacity=".2"/></symbol><use viewBox="0 0 28 28" xlink:href="#conference-paper"/></svg>