<svg xmlns="http://www.w3.org/2000/svg" xmlns:xlink="http://www.w3.org/1999/xlink"><symbol id="dictionary-entry" viewBox="0 0 28 28"><path fill="#fff" d="M18.717,0H3V28H26V7.283L18.717,0Z" opacity=".5"/><polygon fill="#fff" points="4 1 4 27 25 27 25 7.698 18.302 1 4 1"/><polygon points="19 1.698 19 7 24.302 7 19 1.698" opacity=".08"/><path d="M18.717,0H3V28H26V7.283ZM19,1.7,24.3,7H19ZM25,27H4V1H18V8h7Z" opacity=".2"/><path fill="#db2c3a" d="M20.025,23l-4.16-13h-2.73L8.975,23H7v1h5V23H10.025l.96-3h7.03l.96,3H17v1h5V23Zm-8.72-4,2.56-8h1.27l2.56,8Z"/></symbol><symbol id="dictionary-entry-active"><polygon fill="#fff" points="18.5 .49 18.5 7.5 25.51 7.5 18.5 .49" opacity=".4"/><path fill="#fff" d="M18.717,0H3V28H26V7.283ZM19,1.7,24.3,7H19ZM25,27H4V1H18V8h7Z"/><path fill="#fff" d="M20.025,23l-4.16-13h-2.73L8.975,23H7v1h5V23H10.025l.96-3h7.03l.96,3H17v1h5V23Zm-8.72-4,2.56-8h1.27l2.56,8Z"/></symbol><use viewBox="0 0 28 28" xlink:href="#dictionary-entry"/></svg>