<svg xmlns="http://www.w3.org/2000/svg" xmlns:xlink="http://www.w3.org/1999/xlink"><symbol id="document" viewBox="0 0 28 28"><path fill="#fff" d="M18.717,0H3V28H26V7.283L18.717,0Z" opacity=".5"/><polygon fill="#fff" points="4 1 4 27 25 27 25 7.698 18.302 1 4 1"/><polygon points="19 1.698 19 7 24.302 7 19 1.698" opacity=".08"/><path d="M18.717,0H3V28H26V7.283ZM19,1.7,24.3,7H19ZM25,27H4V1H18V8h7Z" opacity=".2"/></symbol><symbol id="document-active"><polygon fill="#fff" points="18.5 .49 18.5 7.5 25.51 7.5 18.5 .49" opacity=".4"/><path fill="#fff" d="M18.717,0H3V28H26V7.283ZM19,1.7,24.3,7H19ZM25,27H4V1H18V8h7Z"/></symbol><use viewBox="0 0 28 28" xlink:href="#document"/></svg>