<svg xmlns="http://www.w3.org/2000/svg" xmlns:xlink="http://www.w3.org/1999/xlink"><symbol id="journal-article" viewBox="0 0 28 28"><path fill="#fff" d="M18.717,0H3V28H26V7.283L18.717,0Z" opacity=".5"/><polygon fill="#fff" points="4 1 4 27 25 27 25 7.698 18.302 1 4 1"/><polygon points="19 1.698 19 7 24.302 7 19 1.698" opacity=".08"/><path d="M18.717,0H3V28H26V7.283ZM19,1.7,24.3,7H19ZM25,27H4V1H18V8h7Z" opacity=".2"/><path fill="#444" d="M15,8H8V7h7Zm6,4H8v1H21Zm0,5H8v1H21Zm0,5H8v1H21Z"/></symbol><symbol id="journal-article-active"><path fill="#fff" d="M25.51,7.5H18.5V.49Z" opacity=".4"/><path fill="#fff" d="M15,8H8V7h7Zm6,4H8v1H21Zm0,5H8v1H21Zm0,5H8v1H21ZM18.717,0H3V28H26V7.283ZM19,1.7,24.3,7H19ZM25,27H4V1H18V8h7Z"/></symbol><use viewBox="0 0 28 28" xlink:href="#journal-article"/></svg>