<svg xmlns="http://www.w3.org/2000/svg" xmlns:xlink="http://www.w3.org/1999/xlink"><symbol id="pdf" viewBox="0 0 28 28"><path fill="#fff" d="M20.717,0H5V28H28V7.283L20.717,0Z" opacity=".5"/><polygon fill="#fff" points="6 1 6 27 27 27 27 7.698 20.302 1 6 1"/><polygon points="21 1.698 21 7 26.302 7 21 1.698" opacity=".08"/><path d="M20.717,0H5V28H28V7.283ZM21,1.7,26.3,7H21ZM27,27H6V1H20V8h7Z" opacity=".2"/><rect width="14" height="5" x="1" y="6" fill="#f1abb0"/><path fill="#db2c3a" d="M15,6v5H1V6H15m1-1H0v7H16V5Z"/></symbol><symbol id="pdf-active"><polygon fill="#fff" points="20.5 .49 20.5 7.5 27.51 7.5 20.5 .49" opacity=".4"/><rect width="14" height="5" x="1" y="6" fill="#fff" opacity=".4"/><path fill="#fff" d="M20.717,0H5V5H0v7H5V28H28V7.283ZM21,1.7,26.3,7H21ZM1,11V6H15v5ZM27,27H6V12H16V5H6V1H20V8h7Z"/></symbol><use viewBox="0 0 28 28" xlink:href="#pdf"/></svg>