<svg xmlns="http://www.w3.org/2000/svg" xmlns:xlink="http://www.w3.org/1999/xlink"><symbol id="presentation" viewBox="0 0 28 28"><rect width="25" height="17" x="2" y="3" fill="#fff" opacity=".5"/><rect width="23" height="16" x="3" y="3" fill="#fff"/><polygon fill="#a3ceff" points="5 12.5 5 17 24 17 24 9.5 17.5 12.5 11.5 9.5 5 12.5"/><polygon fill="#66adff" points="24 8.95 17.509 11.945 11.509 8.945 5 11.95 5 13.05 11.491 10.055 17.491 13.055 24 10.05 24 8.95"/><path fill="#444" d="M1,3A1,1,0,0,1,2,2H14V.5a.5.5,0,0,1,1,0V2H27a1,1,0,0,1,1,1ZM15,22.293V20H14v2.293L9.146,27.146a.5.5,0,0,0,.708.708L14,23.707V27.5a.5.5,0,0,0,1,0V23.707l4.146,4.147a.5.5,0,0,0,.708-.708Z"/><polygon points="26 3 26 19 3 19 3 3 2 3 2 20 27 20 27 3 26 3" opacity=".2"/></symbol><symbol id="presentation-active"><polygon fill="#fff" points="5 12.5 5 17 24 17 24 9.5 17.5 12.5 11.5 9.5 5 12.5" opacity=".6"/><polygon fill="#fff" points="24 8.95 17.509 11.945 11.509 8.945 5 11.95 5 13.05 11.491 10.055 17.491 13.055 24 10.05 24 8.95"/><path fill="#fff" d="M27,2H15V.5a.5.5,0,0,0-1,0V2H2A1,1,0,0,0,1,3H2V20H14v2.293L9.146,27.146a.5.5,0,0,0,.708.708L14,23.707V27.5a.5.5,0,0,0,1,0V23.707l4.146,4.147a.5.5,0,0,0,.708-.708L15,22.293V20H27V3h1A1,1,0,0,0,27,2ZM26,19H3V3H26Z"/></symbol><use viewBox="0 0 28 28" xlink:href="#presentation"/></svg>