<svg xmlns="http://www.w3.org/2000/svg" xmlns:xlink="http://www.w3.org/1999/xlink"><symbol id="web-page" viewBox="0 0 28 28"><path fill="#fff" d="M1.75,2h24.5A1.75,1.75,0,0,1,28,3.75V26a0,0,0,0,1,0,0H0a0,0,0,0,1,0,0V3.75A1.75,1.75,0,0,1,1.75,2Z" opacity=".5"/><rect width="26" height="16" x="1" y="9" fill="#fff"/><path fill="#f5f5f5" d="M1.75,3h24.5a.75.75,0,0,1,.75.75V9a0,0,0,0,1,0,0H1A0,0,0,0,1,1,9V3.75A.75.75,0,0,1,1.75,3Z"/><circle cx="4" cy="6" r="1" fill="#e24940"/><circle cx="7" cy="6" r="1" fill="#e0a32a"/><circle cx="10" cy="6" r="1" fill="#28ad31"/><rect width="21" height="6" x="3.5" y="16.5" fill="#b3c7f5"/><path fill="#4072e5" d="M24,17v5H4V17H24m1-1H3v7H25V16Z"/><path d="M26.25,2H1.75A1.751,1.751,0,0,0,0,3.75V26H28V3.75A1.751,1.751,0,0,0,26.25,2ZM27,25H1V10H27ZM27,9H1V3.75A.75.75,0,0,1,1.75,3h24.5a.75.75,0,0,1,.75.75Z" opacity=".2"/></symbol><symbol id="web-page-active"><rect width="26" height="6" x="1" y="3" fill="#fff" opacity=".2"/><rect width="21" height="6" x="3.5" y="16.5" fill="#fff" opacity=".4"/><path fill="#fff" d="M26,2H2A2,2,0,0,0,0,4V26H28V4A2,2,0,0,0,26,2Zm1,23H1V10H27ZM27,9H1V4A1,1,0,0,1,2,3H26a1,1,0,0,1,1,1ZM5,6A1,1,0,1,1,4,5,1,1,0,0,1,5,6ZM8,6A1,1,0,1,1,7,5,1,1,0,0,1,8,6Zm3,0a1,1,0,1,1-1-1A1,1,0,0,1,11,6ZM24,17v5H4V17H24m1-1H3v7H25V16Z"/></symbol><use viewBox="0 0 28 28" xlink:href="#web-page"/></svg>