<svg xmlns="http://www.w3.org/2000/svg" xmlns:xlink="http://www.w3.org/1999/xlink"><symbol id="web-page-snapshot" viewBox="0 0 28 28"><path fill="#fff" d="M1.75,2h22.5A1.75,1.75,0,0,1,26,3.75V25a0,0,0,0,1,0,0H0a0,0,0,0,1,0,0V3.75A1.75,1.75,0,0,1,1.75,2Z" opacity=".5"/><rect width="24" height="15" x="1" y="9" fill="#fff"/><path fill="#f5f5f5" d="M1.75,3h22.5a.75.75,0,0,1,.75.75V9a0,0,0,0,1,0,0H1A0,0,0,0,1,1,9V3.75A.75.75,0,0,1,1.75,3Z"/><circle cx="4" cy="6" r="1" fill="#e24940"/><circle cx="7" cy="6" r="1" fill="#e0a32a"/><circle cx="10" cy="6" r="1" fill="#28ad31"/><path d="M24.25,2H1.75A1.751,1.751,0,0,0,0,3.75V25H26V3.75A1.751,1.751,0,0,0,24.25,2ZM25,24H1V10H25ZM25,9H1V3.75A.75.75,0,0,1,1.75,3h22.5a.75.75,0,0,1,.75.75Z" opacity=".2"/><rect width="6.5" height="5" x="3.5" y="16.5" fill="#b3c7f5"/><rect width="16" height="12" x="11.5" y="14.5" fill="#b4b4b4" rx="1.25"/><circle cx="19.5" cy="20.5" r="3" fill="#dadada"/><path fill="#444" d="M26.25,15a.75.75,0,0,1,.75.75v9.5a.75.75,0,0,1-.75.75H12.75a.75.75,0,0,1-.75-.75v-9.5a.75.75,0,0,1,.75-.75h13.5m0-1H12.75A1.751,1.751,0,0,0,11,15.75v9.5A1.751,1.751,0,0,0,12.75,27h13.5A1.751,1.751,0,0,0,28,25.25v-9.5A1.751,1.751,0,0,0,26.25,14ZM19.5,18A2.5,2.5,0,1,1,17,20.5,2.5,2.5,0,0,1,19.5,18m0-1A3.5,3.5,0,1,0,23,20.5,3.5,3.5,0,0,0,19.5,17Zm5.5.5v-1a.5.5,0,0,0-.5-.5h-1a.5.5,0,0,0-.5.5v1a.5.5,0,0,0,.5.5h1A.5.5,0,0,0,25,17.5ZM19.5,19c-.049,0-.1.01-.143.014a.975.975,0,0,1,.143.486,1,1,0,0,1-1,1,.975.975,0,0,1-.486-.143c0,.047-.014.094-.014.143A1.5,1.5,0,1,0,19.5,19Z"/><polygon fill="#4072e5" points="10 21 4 21 4 17 10 17 10 16 3 16 3 22 10 22 10 21"/></symbol><symbol id="web-page-snapshot-active"><path fill="#fff" d="M25,9H1V3.75A.75.75,0,0,1,1.75,3h22.5a.75.75,0,0,1,.75.75ZM22.5,20.5a3,3,0,1,0-3,3A3,3,0,0,0,22.5,20.5Z" opacity=".2"/><path fill="#fff" d="M3.5,16.5H10v5H3.5Zm24-.75v9.5a1.252,1.252,0,0,1-1.25,1.25H12.75a1.252,1.252,0,0,1-1.25-1.25v-9.5a1.252,1.252,0,0,1,1.25-1.25h13.5A1.252,1.252,0,0,1,27.5,15.75Zm-5,4.75a3,3,0,1,0-3,3A3,3,0,0,0,22.5,20.5Z" opacity=".4"/><path fill="#fff" d="M11,6a1,1,0,1,1-1-1A1,1,0,0,1,11,6ZM4,5A1,1,0,1,0,5,6,1,1,0,0,0,4,5ZM7,5A1,1,0,1,0,8,6,1,1,0,0,0,7,5ZM3,22h7V21H4V17h6V16H3Zm16.5-3c-.049,0-.1.01-.143.014a.975.975,0,0,1,.143.486,1,1,0,0,1-1,1,.975.975,0,0,1-.486-.143c0,.047-.014.094-.014.143A1.5,1.5,0,1,0,19.5,19Zm5-3h-1a.5.5,0,0,0-.5.5v1a.5.5,0,0,0,.5.5h1a.5.5,0,0,0,.5-.5v-1A.5.5,0,0,0,24.5,16ZM23,20.5A3.5,3.5,0,1,1,19.5,17,3.5,3.5,0,0,1,23,20.5Zm-1,0A2.5,2.5,0,1,0,19.5,23,2.5,2.5,0,0,0,22,20.5Zm6-4.75v9.5A1.751,1.751,0,0,1,26.25,27H12.75A1.751,1.751,0,0,1,11,25.25V25H0V3.75A1.751,1.751,0,0,1,1.75,2h22.5A1.751,1.751,0,0,1,26,3.75V14h.25A1.751,1.751,0,0,1,28,15.75ZM1,9H25V3.75A.75.75,0,0,0,24.25,3H1.75A.75.75,0,0,0,1,3.75Zm11.75,5H25V10H1V24H11V15.75A1.751,1.751,0,0,1,12.75,14ZM27,15.75a.75.75,0,0,0-.75-.75H12.75a.75.75,0,0,0-.75.75v9.5a.75.75,0,0,0,.75.75h13.5a.75.75,0,0,0,.75-.75Z"/></symbol><use viewBox="0 0 28 28" xlink:href="#web-page-snapshot"/></svg>