<svg xmlns="http://www.w3.org/2000/svg" xmlns:xlink="http://www.w3.org/1999/xlink"><symbol id="artwork" viewBox="0 0 16 16"><rect width="14" height="14" x="1" y="1" fill="#fff" opacity=".5"/><path d="M14,2V14H2V2H14m1-1H1V15H15V1Z" opacity=".2"/><rect width="12" height="12" x="2" y="2" fill="#fff"/><rect width="10" height="10" x="3" y="3" fill="#66adff" opacity=".4"/><polygon fill="#39bf68" points="3 13 6 8 8.5 11.5 10.5 10 13 13 3 13"/></symbol><symbol id="artwork-white"><path fill="#fff" d="M14,2V14H2V2H14m1-1H1V15H15V1Z"/><rect width="10" height="10" x="3" y="3" fill="#fff" opacity=".4"/><polygon fill="#fff" points="3 13 6 8 8.5 11.5 10.5 10 13 13 3 13"/></symbol><use viewBox="0 0 16 16" xlink:href="#artwork"/></svg>