<svg xmlns="http://www.w3.org/2000/svg" xmlns:xlink="http://www.w3.org/1999/xlink"><symbol id="audio-recording" viewBox="0 0 16 16"><path fill="#dadada" d="M6.5,2.5a1.5,1.5,0,0,1,3,0v6a1.5,1.5,0,0,1-3,0Z"/><path fill="#444" d="M8,0A2.5,2.5,0,0,0,5.5,2.5v6a2.5,2.5,0,0,0,5,0v-6A2.5,2.5,0,0,0,8,0ZM9.5,8.5a1.5,1.5,0,0,1-3,0v-6a1.5,1.5,0,0,1,3,0Zm-1,4.449V15h3v1h-7V15h3V12.949A4.49,4.49,0,0,1,3.5,8.5V6h1V8.5a3.5,3.5,0,0,0,7,0V6h1V8.5A4.49,4.49,0,0,1,8.5,12.949Z"/></symbol><symbol id="audio-recording-white"><path fill="#fff" d="M6.5,2.5a1.5,1.5,0,0,1,3,0v6a1.5,1.5,0,0,1-3,0Z" opacity=".2"/><path fill="#fff" d="M8,0A2.5,2.5,0,0,0,5.5,2.5v6a2.5,2.5,0,0,0,5,0v-6A2.5,2.5,0,0,0,8,0ZM9.5,8.5a1.5,1.5,0,0,1-3,0v-6a1.5,1.5,0,0,1,3,0Zm-1,4.449V15h3v1h-7V15h3V12.949A4.49,4.49,0,0,1,3.5,8.5V6h1V8.5a3.5,3.5,0,0,0,7,0V6h1V8.5A4.49,4.49,0,0,1,8.5,12.949Z"/></symbol><use viewBox="0 0 16 16" xlink:href="#audio-recording"/></svg>