<svg xmlns="http://www.w3.org/2000/svg" xmlns:xlink="http://www.w3.org/1999/xlink"><symbol id="blog-post" viewBox="0 0 16 16"><rect width="12" height="16" x="2" fill="#fff" opacity=".5"/><rect width="10" height="14" x="3" y="1" fill="#fff"/><rect width="6" height="2" x="5" y="3" fill="#cc7a52" opacity=".4"/><path d="M13,1V15H3V1H13m1-1H2V16H14V0Z" opacity=".2"/><path fill="#cc7a52" d="M11,3V5H5V3h6m1-1H4V6h8V2Z"/><path fill="#444" d="M9,8H4V7H9ZM8,9H4v1H8Zm1,2H4v1H9ZM8,13H4v1H8Z"/><g opacity=".4"><path fill="#444" d="M10,7h2V8H10Zm0,3h2V9H10Zm0,2h2V11H10Z"/></g></symbol><symbol id="blog-post-white"><path fill="#fff" d="M13,1V15H3V1H13m1-1H2V16H14V0Z"/><rect width="6" height="2" x="5" y="3" fill="#fff" opacity=".4"/><path fill="#fff" d="M11,3V5H5V3h6m1-1H4V6h8V2Z"/><path fill="#fff" d="M9,8H4V7H9ZM8,9H4v1H8Zm1,2H4v1H9ZM8,13H4v1H8Z"/><g opacity=".4"><path fill="#fff" d="M12,7V8H10V7Zm-2,3h2V9H10Zm0,2h2V11H10Z"/></g></symbol><use viewBox="0 0 16 16" xlink:href="#blog-post"/></svg>