<svg xmlns="http://www.w3.org/2000/svg" xmlns:xlink="http://www.w3.org/1999/xlink"><symbol id="dictionary-entry" viewBox="0 0 16 16"><polygon fill="#fff" points="9.707 0 1.5 0 1.5 16 14.5 16 14.5 4.793 9.707 0 9.707 0" opacity=".5"/><polyline fill="#fff" points="9.293 1 13.5 5.207 13.5 15 2.5 15 2.5 1 9.293 1"/><path d="M9.707,0H1.5V16h13V4.793ZM10,1.707,12.793,4.5H10ZM2.5,15V1H9V5.5h4.5V15Z" opacity=".2"/><polygon points="10 1.707 10 4.5 12.793 4.5 10 1.707" opacity=".08"/><path fill="#db2c3a" d="M11.536,13,8.843,6H7.157L4.464,13H3.5v1h3V13H5.536l.384-1h4.16l.384,1H9.5v1h3V13ZM6.305,11,7.843,7h.314L9.7,11Z"/></symbol><symbol id="dictionary-entry-white"><g opacity=".4"><polygon fill="#fff" points="10 .5 10 4.5 14 4.5 10 .5"/></g><path fill="#fff" d="M11.536,13,8.843,6H7.157L4.464,13H3.5v1h3V13H5.536l.384-1h4.16l.384,1H9.5v1h3V13ZM6.305,11,7.843,7h.314L9.7,11Z"/><path fill="#fff" d="M10.207,0H1.5V16h13V4.293ZM10.5,1.707,12.793,4H10.5ZM13.5,15H2.5V1h7V5h4Z"/></symbol><use viewBox="0 0 16 16" xlink:href="#dictionary-entry"/></svg>