<svg xmlns="http://www.w3.org/2000/svg" xmlns:xlink="http://www.w3.org/1999/xlink"><symbol id="film" viewBox="0 0 16 16"><path fill="#444" d="M1,1.5v13H15V1.5Zm10,1v5H5v-5Zm-9,0H4v2H2Zm0,3H4v2H2Zm0,3H4v2H2Zm0,5v-2H4v2Zm3,0v-5h6v5Zm9,0H12v-2h2Zm0-3H12v-2h2Zm0-3H12v-2h2Zm0-3H12v-2h2Z"/><path fill="#444" d="M11,7.5H5v-5h6Zm0,1H5v5h6Z" opacity=".2"/></symbol><symbol id="film-white"><path fill="#fff" d="M1,1.5v13H15V1.5Zm10,1v5H5v-5Zm-9,0H4v2H2Zm0,3H4v2H2Zm0,3H4v2H2Zm0,5v-2H4v2Zm3,0v-5h6v5Zm9,0H12v-2h2Zm0-3H12v-2h2Zm0-3H12v-2h2Zm0-3H12v-2h2Z"/><path fill="#fff" d="M11,7.5H5v-5h6Zm0,1H5v5h6Z" opacity=".2"/></symbol><use viewBox="0 0 16 16" xlink:href="#film"/></svg>