<svg xmlns="http://www.w3.org/2000/svg" xmlns:xlink="http://www.w3.org/1999/xlink"><symbol id="magazine-article" viewBox="0 0 16 16"><rect width="11" height="12" x="2.5" y="3" fill="#fff"/><polygon fill="#d9e3fa" points="3.5 14 3.5 3 2.5 3 2.5 15 7.5 15 7.5 14 3.5 14"/><path fill="#b3c7f5" d="M4,13.5V.5H7a1,1,0,0,1,1,1v12Z"/><path fill="#4072e5" d="M8.5,2V1.5A1.5,1.5,0,0,0,7,0H3.5V2h-2V16h13V2Zm-4-1H7a.5.5,0,0,1,.5.5V13h-3Zm-2,14V3h1V14H7a.5.5,0,0,1,0,1Zm11,0H8.408a1.483,1.483,0,0,0,.092-.5V3h5Z"/><path fill="#444" d="M9.5,10h3v1h-3Zm0,3h3V12h-3Z"/><polygon fill="#39bf68" points="9.5 4 9.5 5 11.5 5 11.5 8 9.5 8 9.5 9 12.5 9 12.5 4 9.5 4"/><rect width="2" height="3" x="9.5" y="5" fill="#b0e5c3"/></symbol><symbol id="magazine-article-white"><polygon fill="#fff" points="3.5 14 3.5 3 2.5 3 2.5 15 7.5 15 7.5 14 3.5 14" opacity=".2"/><path fill="#fff" d="M4,13.5V.5H7a1,1,0,0,1,1,1v12Z" opacity=".4"/><path fill="#fff" d="M8.5,2V1.5A1.5,1.5,0,0,0,7,0H3.5V2h-2V16h13V2Zm-4-1H7a.5.5,0,0,1,.5.5V13h-3Zm-2,14V3h1V14H7a.5.5,0,0,1,0,1Zm11,0H8.408a1.483,1.483,0,0,0,.092-.5V3h5Zm-4-5h3v1h-3Zm0,3h3V12h-3Zm3-9V9h-3V8h2V5h-2V4Z"/><rect width="2" height="3" x="9.5" y="5" fill="#fff" opacity=".4"/></symbol><use viewBox="0 0 16 16" xlink:href="#magazine-article"/></svg>