<svg xmlns="http://www.w3.org/2000/svg" xmlns:xlink="http://www.w3.org/1999/xlink"><symbol id="manuscript" viewBox="0 0 16 16"><rect width="12" height="15" y="1" fill="#fff" opacity=".5"/><path d="M11,2V15H1V2H11m1-1H0V16H12V1Z" opacity=".2"/><rect width="10" height="13" x="1" y="2" fill="#fff"/><rect width=".707" height=".707" x="13.146" y="5.146" fill="#fff" opacity=".5" transform="translate(0.065 11.157) rotate(-45)"/><rect width=".707" height=".707" x="13.146" y="5.146" opacity=".2" transform="translate(0.065 11.157) rotate(-45)"/><rect width=".707" height=".707" x="13.646" y="5.646" fill="#fff" transform="translate(-0.142 11.657) rotate(-45)"/><rect width=".707" height=".707" x="14.146" y="6.146" fill="#fff" opacity=".5" transform="translate(-0.349 12.157) rotate(-45)"/><rect width=".707" height=".707" x="14.146" y="6.146" opacity=".2" transform="translate(-0.349 12.157) rotate(-45)"/><rect width="1.414" height="2.121" x="14.043" y="4.189" fill="#db2c3a" transform="translate(0.608 11.967) rotate(-45)"/><polygon fill="#cc7a52" points="9 12.5 14.5 7 13 5.5 7.5 11 7 13 9 12.5"/><polygon fill="#f5e4dc" points="8.375 11.125 8.138 11.361 7.972 12.028 8.639 11.862 8.875 11.625 8.375 11.125"/></symbol><symbol id="manuscript-white"><path fill="#fff" d="M16,5.5,14.5,4,12,6.5V1H0V16H12V9.5Zm-2,0,.5.5-.5.5L13.5,6ZM11,15H1V2H11V7.5L7.5,11,7,13l2-.5,2-2ZM8.875,11.625l-.236.237-.667.166.166-.667.237-.236Z"/><polygon fill="#fff" points="8.375 11.125 8.138 11.361 7.972 12.028 8.639 11.862 8.875 11.625 8.375 11.125" opacity=".2"/></symbol><use viewBox="0 0 16 16" xlink:href="#manuscript"/></svg>