<svg xmlns="http://www.w3.org/2000/svg" xmlns:xlink="http://www.w3.org/1999/xlink"><symbol id="pdf" viewBox="0 0 16 16"><polygon fill="#fff" points="11.207 0 3 0 3 16 16 16 16 4.793 11.207 0 11.207 0" opacity=".5"/><polyline fill="#fff" points="10.793 1 15 5.207 15 15 4 15 4 1 10.793 1"/><path d="M11.207,0H3V16H16V4.793ZM11.5,1.707,14.293,4.5H11.5ZM4,15V1h6.5V5.5H15V15Z" opacity=".2"/><polygon points="11.5 1.707 11.5 4.5 14.293 4.5 11.5 1.707" opacity=".08"/><rect width="7" height="2" x="1" y="4" fill="#f1abb0"/><path fill="#db2c3a" d="M8,4V6H1V4H8M9,3H0V7H9V3Z"/></symbol><symbol id="pdf-white"><g opacity=".4"><polygon fill="#fff" points="11 .5 11 5 15.5 5 11 .5"/></g><rect width="7" height="2" x="1" y="4" fill="#fff" opacity=".4"/><path fill="#fff" d="M11.207,0H3V3H0V7H3v9H16V4.793ZM11.5,1.707,14.293,4.5H11.5ZM1,6V4H8V6Zm14,9H4V7H9V3H4V1h6.5V5.5H15Z"/></symbol><use viewBox="0 0 16 16" xlink:href="#pdf"/></svg>