<svg xmlns="http://www.w3.org/2000/svg" xmlns:xlink="http://www.w3.org/1999/xlink"><symbol id="report" viewBox="0 0 16 16"><path fill="#fff" d="M14,0H3A1,1,0,0,0,2,1V15a1,1,0,0,0,1,1H14a1,1,0,0,0,1-1V1a1,1,0,0,0-1-1Z" opacity=".5"/><polyline fill="#fff" points="14 1 14 15 3 15 3 1 14 1"/><path d="M14,0H3A1,1,0,0,0,2,1V15a1,1,0,0,0,1,1H14a1,1,0,0,0,1-1V1A1,1,0,0,0,14,0ZM10.5,11.5h2.793L10.5,14.293ZM3,1H14v9.5H9.5V15H3ZM14,15H11.207L14,12.207Z" opacity=".2"/><path fill="#db2c3a" d="M1,3a.5.5,0,0,1,.5-.5h2a.5.5,0,0,1,0,1h-2A.5.5,0,0,1,1,3ZM3.5,5h-2a.5.5,0,0,0,0,1h2a.5.5,0,0,0,0-1Zm0,2.5h-2a.5.5,0,0,0,0,1h2a.5.5,0,0,0,0-1Zm0,2.5h-2a.5.5,0,0,0,0,1h2a.5.5,0,0,0,0-1Zm0,2.5h-2a.5.5,0,0,0,0,1h2a.5.5,0,0,0,0-1Z"/><path fill="#444" d="M12,5.5H6v-1h6Zm-1,1H7v1h4Z"/><polygon points="10.5 11.5 10.5 14.293 13.293 11.5 10.5 11.5" opacity=".08"/></symbol><symbol id="report-white"><g opacity=".4"><polygon fill="#fff" points="14.5 11 10 11 10 15.5 14.5 11"/></g><path fill="#fff" d="M14,0H3A1,1,0,0,0,2,1V2.5H1.5a.5.5,0,0,0,0,1H2V5H1.5a.5.5,0,0,0,0,1H2V7.5H1.5a.5.5,0,0,0,0,1H2V10H1.5a.5.5,0,0,0,0,1H2v1.5H1.5a.5.5,0,0,0,0,1H2V15a1,1,0,0,0,1,1H14a1,1,0,0,0,1-1V1A1,1,0,0,0,14,0Zm0,15H11.207L14,12.207Zm-3.5-.707V11.5h2.793ZM14,10.5H9.5V15H3V13.5h.5a.5.5,0,0,0,0-1H3V11h.5a.5.5,0,0,0,0-1H3V8.5h.5a.5.5,0,0,0,0-1H3V6h.5a.5.5,0,0,0,0-1H3V3.5h.5a.5.5,0,0,0,0-1H3V1H14Zm-2-5H6v-1h6Zm-1,1H7v1h4Z"/></symbol><use viewBox="0 0 16 16" xlink:href="#report"/></svg>