<svg xmlns="http://www.w3.org/2000/svg" xmlns:xlink="http://www.w3.org/1999/xlink"><symbol id="web-page" viewBox="0 0 16 16"><rect width="14" height="12" x="1" y="2" fill="#fff"/><rect width="14" height="3" x="1" y="2" opacity=".04"/><rect width="11" height="3" x="2.5" y="9.5" fill="#4072e5" opacity=".4"/><path fill="#4072e5" d="M13,10v2H3V10H13m1-1H2v4H14V9Z"/><g opacity=".5"><path fill="#fff" d="M15,2V14H1V2H15m0-1H1A1,1,0,0,0,0,2V15H16V2a1,1,0,0,0-1-1Z"/></g><path d="M15,1H1A1,1,0,0,0,0,2V15H16V2A1,1,0,0,0,15,1Zm0,13H1V6H15Zm0-9H1V2H15Z" opacity=".2"/><rect width="1" height="1" x="2" y="3" fill="#e24940"/><rect width="1" height="1" x="4" y="3" fill="#e0a32a"/><rect width="1" height="1" x="6" y="3" fill="#28ad31"/></symbol><symbol id="web-page-white"><rect width="14" height="3" x="1" y="2" fill="#fff" opacity=".2"/><rect width="11" height="3" x="2.5" y="9.5" fill="#fff" opacity=".4"/><path fill="#fff" d="M15,1H1A1,1,0,0,0,0,2V15H16V2A1,1,0,0,0,15,1Zm0,13H1V6H15Zm0-9H1V2H15ZM3,4H2V3H3ZM5,4H4V3H5ZM7,4H6V3H7Zm6,6v2H3V10H13m1-1H2v4H14V9Z"/></symbol><use viewBox="0 0 16 16" xlink:href="#web-page"/></svg>