<svg xmlns="http://www.w3.org/2000/svg" xmlns:xlink="http://www.w3.org/1999/xlink"><symbol id="book" viewBox="0 0 16 16"><polygon fill="#fff" points="13 2 13 13 12 13 12 14 3 14 3 15 14 15 14 2 13 2"/><path fill="#4072e5" d="M14,2H13l1,1V15H4L3,14h9a1,1,0,0,0,1-1V1a1,1,0,0,0-1-1H2A1,1,0,0,0,1,1V13a1,1,0,0,0,.293.707l2,2A1,1,0,0,0,4,16H14a1,1,0,0,0,1-1V3A1,1,0,0,0,14,2ZM4,1h8V13H4ZM2,1H3V13H2Z"/><rect width="8" height="12" x="4" y="1" fill="#b3c7f5"/><rect width="1" height="12" x="2" y="1" fill="#8daaf0"/></symbol><symbol id="book-white"><path fill="#fff" d="M4,1h8V13H4ZM2,1H3V13H2ZM4,15,3,14h9a1,1,0,0,0,1-1V1a1,1,0,0,0-1-1H2A1,1,0,0,0,1,1V13a1,1,0,0,0,.293.707l2,2A1,1,0,0,0,4,16H14a1,1,0,0,0,1-1V3a1,1,0,0,0-1-1H13l1,1V15Z"/><rect width="8" height="12" x="4" y="1" fill="#fff" opacity=".4"/><rect width="1" height="12" x="2" y="1" fill="#fff" opacity=".6"/></symbol><use viewBox="0 0 16 16" xlink:href="#book"/></svg>