<svg xmlns="http://www.w3.org/2000/svg" xmlns:xlink="http://www.w3.org/1999/xlink"><symbol id="dictionary-entry" viewBox="0 0 16 16"><polygon fill="#fff" points="10.707 0 2 0 2 16 15 16 15 4.293 10.707 0 10.707 0" opacity=".5"/><polyline fill="#fff" points="10.293 1 14 4.707 14 15 3 15 3 1 10.293 1"/><path fill="#db2c3a" d="M12.036,13,9.343,6H7.657L4.964,13H4v1H7V13H6.036l.384-1h4.16l.384,1H10v1h3V13ZM6.805,11,8.343,7h.314L10.2,11Z"/><g opacity=".08"><polygon points="11 1.707 11 4 13.293 4 11 1.707"/></g><g opacity=".2"><path d="M10.707,0H2V16H15V4.293ZM11,1.707,13.293,4H11ZM14,15H3V1h7V5h4Z"/></g></symbol><symbol id="dictionary-entry-white"><g opacity=".4"><polygon fill="#fff" points="10.5 .5 10.5 4.5 14.5 4.5 10.5 .5"/></g><path fill="#fff" d="M12.036,13,9.343,6H7.657L4.964,13H4v1H7V13H6.036l.384-1h4.16l.384,1H10v1h3V13ZM6.805,11,8.343,7h.314L10.2,11Z"/><path fill="#fff" d="M10.707,0H2V16H15V4.293ZM11,1.707,13.293,4H11ZM14,15H3V1h7V5h4Z"/></symbol><use viewBox="0 0 16 16" xlink:href="#dictionary-entry"/></svg>