<svg xmlns="http://www.w3.org/2000/svg" xmlns:xlink="http://www.w3.org/1999/xlink"><symbol id="journal-article" viewBox="0 0 16 16"><polygon fill="#fff" points="9.707 0 2 0 2 16 15 16 15 5.293 9.707 0 9.707 0" opacity=".5"/><polyline fill="#fff" points="9.293 1 14 5.707 14 15 3 15 3 1 9.293 1"/><path d="M9.707,0H2V16H15V5.293Zm3.586,5H10V1.707ZM14,15H3V1H9V6h5Z" opacity=".2"/><path fill="#444" d="M7,6H5V5H7Zm5,2H5V9h7Zm0,3H5v1h7Z"/></symbol><symbol id="journal-article-white"><g opacity=".4"><path fill="#fff" d="M14.5,5.5h-5V.5Z"/></g><path fill="#fff" d="M7,6H5V5H7Zm5,2H5V9h7Zm0,3H5v1h7Z"/><path fill="#fff" d="M9.707,0H2V16H15V5.293Zm3.586,5H10V1.707ZM14,15H3V1H9V6h5Z"/></symbol><use viewBox="0 0 16 16" xlink:href="#journal-article"/></svg>