<svg xmlns="http://www.w3.org/2000/svg" xmlns:xlink="http://www.w3.org/1999/xlink"><symbol id="letter" viewBox="0 0 16 16"><rect width="16" height="12" y="2" fill="#fff" opacity=".5"/><rect width="14" height="10" x="1" y="3" fill="#fff"/><path d="M0,2V14H16V2ZM8.707,8.586a1,1,0,0,1-1.414,0L1.707,3H14.293Zm-2.121.707a2,2,0,0,0,2.828,0L10,8.707,14.293,13H1.707L6,8.707ZM15,3.707v8.586L10.707,8ZM5.293,8,1,12.293V3.707Z" opacity=".2"/></symbol><symbol id="letter-white"><path fill="#fff" d="M0,2V14H16V2ZM8.707,8.586a1,1,0,0,1-1.414,0L1.707,3H14.293Zm-2.121.707a2,2,0,0,0,2.828,0L10,8.707,14.293,13H1.707L6,8.707ZM15,3.707v8.586L10.707,8ZM5.293,8,1,12.293V3.707Z"/></symbol><use viewBox="0 0 16 16" xlink:href="#letter"/></svg>