<svg xmlns="http://www.w3.org/2000/svg" xmlns:xlink="http://www.w3.org/1999/xlink"><symbol id="magazine-article" viewBox="0 0 16 16"><rect width="11" height="12" x="3" y="3" fill="#fff"/><polygon fill="#d9e3fa" points="4 14 4 3 3 3 3 15 8 15 8 14 4 14"/><path fill="#b3c7f5" d="M4.5,13.5V.5h3a1,1,0,0,1,1,1v12Z"/><path fill="#4072e5" d="M9,2V1.5A1.5,1.5,0,0,0,7.5,0H4V2H2V16H15V2ZM5,1H7.5a.5.5,0,0,1,.5.5V13H5ZM3,15V3H4V14H7.5a.5.5,0,0,1,0,1Zm11,0H8.908A1.483,1.483,0,0,0,9,14.5V3h5Z"/><path fill="#444" d="M10,10h3v1H10Zm0,3h3V12H10Z"/><polygon fill="#39bf68" points="10 4 10 5 12 5 12 8 10 8 10 9 13 9 13 4 10 4"/><rect width="2" height="3" x="10" y="5" fill="#b0e5c3"/></symbol><symbol id="magazine-article-white"><polygon fill="#fff" points="4 14 4 3 3 3 3 15 8 15 8 14 4 14" opacity=".2"/><path fill="#fff" d="M4.5,13.5V.5h3a1,1,0,0,1,1,1v12Z" opacity=".4"/><path fill="#fff" d="M9,2V1.5A1.5,1.5,0,0,0,7.5,0H4V2H2V16H15V2ZM5,1H7.5a.5.5,0,0,1,.5.5V13H5ZM3,15V3H4V14H7.5a.5.5,0,0,1,0,1Zm11,0H8.908A1.483,1.483,0,0,0,9,14.5V3h5Zm-4-5h3v1H10Zm0,3h3V12H10Zm3-9V9H10V8h2V5H10V4Z"/><rect width="2" height="3" x="10" y="5" fill="#fff" opacity=".4"/></symbol><use viewBox="0 0 16 16" xlink:href="#magazine-article"/></svg>