<svg xmlns="http://www.w3.org/2000/svg" xmlns:xlink="http://www.w3.org/1999/xlink"><symbol id="note" viewBox="0 0 16 16"><polygon fill="#fff" points="15 0 2 0 2 16 9.707 16 15 10.707 15 0 15 0" opacity=".5"/><polyline fill="#fff" points="14 1 14 10.293 9.293 15 3 15 3 1 14 1"/><path d="M15,10.707V0H2V16H9.707Zm-5,3.586V11h3.293ZM14,10H9v5H3V1H14Z" opacity=".2"/><path fill="#faa700" d="M14,1V2H3V1H14m1-1H2V3H15V0Z"/><rect width="11" height="1" x="3" y="1" fill="#faa700" opacity=".4"/></symbol><symbol id="note-white"><polygon fill="#fff" points="9.5 15.5 9.5 10.5 14.5 10.5 9.5 15.5" opacity=".4"/><path fill="#fff" d="M2,0V16H9.707L15,10.707V0ZM3,1H14V2H3Zm7,13.293V11h3.293ZM14,10H9v5H3V3H14Z"/><rect width="11" height="1" x="3" y="1" fill="#fff" opacity=".4"/></symbol><use viewBox="0 0 16 16" xlink:href="#note"/></svg>