<svg xmlns="http://www.w3.org/2000/svg" xmlns:xlink="http://www.w3.org/1999/xlink"><symbol id="pdf" viewBox="0 0 16 16"><polygon fill="#fff" points="11.707 0 3 0 3 16 16 16 16 4.293 11.707 0 11.707 0" opacity=".5"/><polyline fill="#fff" points="11.293 1 15 4.707 15 15 4 15 4 1 11.293 1"/><g opacity=".08"><polygon points="12 1.707 12 4 14.293 4 12 1.707"/></g><g opacity=".2"><path d="M11.707,0H3V16H16V4.293ZM12,1.707,14.293,4H12ZM15,15H4V1h7V5h4Z"/></g><rect width="7" height="2" x="1" y="4" fill="#f1abb0"/><path fill="#db2c3a" d="M8,4V6H1V4H8M9,3H0V7H9V3Z"/></symbol><symbol id="pdf-white"><polygon fill="#fff" points="12 1.707 12 4 14.293 4 12 1.707" opacity=".4"/><path fill="#fff" d="M11.707,0H3V3H0V7H3v9H16V4.293ZM12,1.707,14.293,4H12ZM1,6V4H8V6Zm14,9H4V7H9V3H4V1h7V5h4Z"/><rect width="7" height="2" x="1" y="4" fill="#fff" opacity=".4"/></symbol><use viewBox="0 0 16 16" xlink:href="#pdf"/></svg>